<?xml version="1.0" encoding="UTF-8" standalone="no"?>
<svg width="446px" height="181px" viewBox="0 0 446 181" version="1.1" xmlns="http://www.w3.org/2000/svg" xmlns:xlink="http://www.w3.org/1999/xlink">
    <!-- Generator: Sketch 3.7.1 (28215) - http://www.bohemiancoding.com/sketch -->
    <title>Page 1</title>
    <desc>Created with Sketch.</desc>
    <defs>
        <polygon id="path-1" points="445.807409 180.555267 445.807409 0.824488889 0 0.824488889 1.96247633e-20 180.555267 445.807409 180.555267"></polygon>
    </defs>
    <g id="Page-1" stroke="none" stroke-width="1" fill="none" fill-rule="evenodd">
        <g id="home-copy-2" transform="translate(-488.000000, -237.000000)">
            <g id="Page-1" transform="translate(488.000000, 236.000000)">
                <g id="Group-3" transform="translate(0.000000, 0.621111)">
                    <mask id="mask-2" fill="white">
                        <use xlink:href="#path-1"></use>
                    </mask>
                    <g id="Clip-2"></g>
                    <path d="M445.231664,28.4220444 C443.834294,21.2373778 439.264242,11.2071556 430.984281,6.57482222 L420.70456,0.824488889 L417.355216,12.0954889 C412.667871,27.8789333 402.881936,41.6444889 393.682462,53.1307111 C390.454755,51.9043778 386.879514,51.5461556 383.040729,52.0574889 C379.656631,52.5124889 376.023469,53.6261556 372.238261,55.3724889 C368.842579,56.9382667 365.357118,58.9662667 361.89917,61.3828222 C361.748573,58.5820444 360.850781,56.3908222 359.838592,54.7817111 C357.821456,51.5678222 353.525086,47.7371556 344.522547,47.7371556 C341.083423,47.7371556 337.393787,48.4131556 333.56369,49.7449333 C330.182488,50.9149333 326.697027,52.5153778 323.202878,54.4971556 C320.426962,56.0730444 317.642358,57.8641556 314.893956,59.8372667 C314.560904,57.7616 313.815157,56.0788222 312.998456,54.7773778 C310.978423,51.5649333 306.680605,47.7371556 297.68241,47.7371556 C294.246183,47.7371556 290.557995,48.4131556 286.723553,49.7449333 C283.340904,50.9149333 279.855443,52.5153778 276.36419,54.4971556 C273.038014,56.3850444 269.691566,58.5863778 266.414625,61.0404889 C263.157956,63.4844889 260.069261,66.1076 257.238319,68.8332667 C256.961742,69.0976 256.68806,69.3662667 256.414378,69.6363778 C258.787735,66.8904889 261.227703,64.2370444 263.705319,61.7049333 C267.729456,57.5940444 271.857852,53.5452667 275.981904,49.6698222 C280.184151,45.7192667 284.369021,41.8134889 288.529274,37.9524889 C292.805371,33.9831556 297.023547,29.8506 301.063612,25.6747111 L317.978306,8.19115556 L285.550631,10.3188222 L283.608794,11.4714889 C278.133709,14.7214889 272.52106,18.6214889 266.927235,23.0631556 C261.472423,27.3950444 256.091462,32.0143778 250.934949,36.7911556 C249.192943,38.4046 247.474105,40.0296 245.779884,41.6589333 C246.134657,38.9101556 246.013021,35.9100444 245.400495,32.7553778 C244.003125,25.5707111 239.433073,15.5404889 231.153112,10.9081556 L220.873391,5.15782222 L217.524047,16.4288222 C212.8758,32.0822667 203.208605,45.7553778 194.072845,57.1867111 C190.924781,56.0499333 187.449456,55.7263778 183.733755,56.2247111 C180.354001,56.6782667 176.719391,57.7933778 172.931287,59.5411556 C169.484923,61.1300444 165.950229,63.1912667 162.445943,65.6526 C161.162969,66.5496 159.784423,67.5433778 158.333475,68.6180444 C158.214735,68.1919333 158.082962,67.7687111 157.939605,67.3498222 C156.863703,64.2283778 155.11156,61.5446 152.722274,59.3620444 C149.771144,56.6782667 145.978696,55.2612667 141.753281,55.2612667 C139.091761,55.2612667 136.241995,55.7206 133.037456,56.6667111 C130.346975,57.4611556 127.607261,58.4737111 124.900852,59.6697111 C122.211819,60.8556 119.572021,62.2133778 117.05241,63.7040444 C114.493703,65.2178222 112.352034,66.6694889 110.508664,68.1356 C110.455086,68.1760444 110.40006,68.2193778 110.345034,68.2598222 C110.253806,67.9521556 110.156787,67.6473778 110.051079,67.3426 C108.973729,64.2197111 107.221586,61.5373778 104.838092,59.3649333 C103.666618,58.2989333 102.356131,57.4409333 100.944281,56.7837111 C100.783547,55.3826 100.422982,54.0464889 99.8510013,52.7840444 C98.2798649,49.3202667 95.4880208,46.7087111 91.7694234,45.2281556 C91.1684818,44.9898222 90.5429234,44.7789333 89.8956442,44.5983778 C91.6362026,44.1404889 93.4593,43.7519333 95.4416831,43.4558222 L93.627274,45.6008222 L107.682066,49.5629333 C119.60243,52.9183778 134.624521,46.4097111 139.827371,35.6240444 C142.542469,29.9936 142.319469,23.2278222 139.227878,17.5280444 C136.142079,11.8398222 130.58156,7.95571111 124.35204,7.14104444 C120.831826,6.67593333 116.943806,6.73804444 112.795138,7.32015556 C100.302794,9.06793333 87.6584039,11.8427111 75.2152935,15.5708222 L74.8518325,15.6878222 C71.9788974,16.6758222 69.0538325,17.5034889 65.9564494,18.3817111 L65.2411117,18.5839333 C62.8069364,19.2743778 59.9832351,20.2551556 57.5041701,22.2889333 C55.5855013,23.8619333 53.9130013,25.8393778 52.5127351,28.1967111 C50.2754948,31.9912667 47.6849299,35.9750444 44.816339,40.0310444 C41.8594169,44.2083778 34.2585922,55.6122667 33.2855013,56.8790444 C30.9584818,59.9123778 21.7705922,73.2157111 21.6026182,73.4612667 C19.9793519,75.8157111 14.7431961,83.0379333 13.1488909,85.4934889 C12.4219688,86.1882667 7.31034545,93.7976 3.27607273,99.4309333 C0.0527090909,103.930378 -0.829154545,109.937822 0.794111688,116.341044 C2.97777403,124.957156 9.10013766,132.825044 16.3910792,136.3856 L26.977787,141.555267 L29.6885403,130.112378 C31.2596766,123.483822 33.7575662,116.671822 37.2039299,109.5926 L37.2560597,109.669156 C37.5282935,110.066378 37.9004429,110.6326 38.3725078,111.359156 C38.9575208,112.259044 39.6265208,113.2456 40.3708195,114.295711 C41.1571117,115.412267 42.0317351,116.563489 42.9613844,117.708933 C44.0488714,119.052267 45.208761,120.294489 46.4077481,121.400933 C47.7790532,122.667711 49.2300013,123.746711 50.7287351,124.616267 C54.7499753,126.940378 59.3562286,127.274044 63.2268714,125.586933 C66.2402675,124.2696 69.1957416,122.875711 72.0078584,121.442822 C74.9618844,119.9406 77.8666766,118.262156 80.6382481,116.459489 C82.7031701,115.1176 84.7434753,113.647156 86.7287545,112.074156 C87.1935792,112.773267 87.7047416,113.515711 88.2564494,114.295711 C89.0412935,115.412267 89.9159169,116.563489 90.8470143,117.708933 C91.9345013,119.052267 93.0943909,120.294489 94.2919299,121.400933 C95.6646831,122.667711 97.1156312,123.746711 98.6129169,124.616267 C100.950073,125.965378 103.413209,126.650044 105.934268,126.650044 C107.753021,126.650044 109.495027,126.291822 111.112501,125.586933 C114.125897,124.2696 117.081371,122.875711 119.893488,121.442822 C122.847514,119.9406 125.753755,118.262156 128.528222,116.4566 C129.916904,115.553822 131.294001,114.591822 132.653722,113.580711 C133.183709,114.336156 133.783203,115.098822 134.437722,115.844156 C135.345651,116.889933 136.378112,117.916933 137.478631,118.870267 C138.49806,119.762933 139.534865,120.589156 140.551397,121.320044 C141.691014,122.143378 142.834975,122.858378 143.948527,123.444822 C145.858508,124.450156 147.672917,125.004822 149.37293,125.129044 C151.950462,125.350044 154.593157,125.007711 157.235852,124.104933 C159.057501,123.482378 160.92404,122.677822 162.781891,121.715822 C163.31043,121.441378 163.840417,121.1626 164.370404,120.879489 C165.078501,121.419711 165.819904,121.919489 166.580131,122.364378 C167.535845,122.929156 168.568306,123.467933 169.738332,124.012489 L170.246599,124.2306 C170.917047,124.494933 171.577358,124.674044 172.228982,124.783822 C171.134255,125.958156 170.049664,127.110822 168.978105,128.241822 C165.088638,132.345489 161.406242,136.193489 157.930917,139.785822 C154.428079,143.407044 151.193131,146.763933 148.224625,149.8536 C145.185164,153.019822 142.525092,155.891378 140.312469,158.393156 L136.074021,163.188711 L138.993294,168.878378 C139.889638,170.6276 141.175508,171.829378 142.199281,172.685933 C142.814703,173.197267 143.548865,173.770711 144.419144,174.407711 C145.13593,174.932044 145.904845,175.485267 146.722995,176.0616 C147.664229,176.727489 148.601118,177.345711 149.514839,177.900378 C150.469105,178.482489 151.306079,178.849378 152.083683,179.240822 C153.395618,179.900933 155.195547,180.555267 157.46754,180.555267 L161.02106,180.555267 L163.688371,178.314933 C168.154164,174.393267 172.424469,170.543822 176.379099,166.775267 C180.332281,163.0096 184.185547,159.232378 187.830294,155.492711 C191.4678,151.763156 195.045936,147.9946 198.466235,144.266489 C201.89667,140.529711 205.366203,136.647044 208.779261,132.713822 C209.226709,132.196711 209.607547,131.971378 211.04691,131.215933 C213.088664,130.1456 216.173014,128.527822 219.129936,125.0366 C219.308047,124.825711 219.397826,124.754933 220.661975,124.155489 C222.501001,123.280156 225.279813,121.962822 228.068761,118.993044 C230.621677,117.916933 232.444774,116.098378 233.703131,114.843156 C233.775534,114.772378 233.855177,114.691489 233.939164,114.609156 C236.329897,113.933156 238.255806,112.731378 239.757436,111.795378 C240.233845,111.497822 240.939047,111.055822 241.254722,110.908489 C242.436332,110.557489 243.552781,110.102489 244.606962,109.595489 C245.580053,110.846378 246.708086,111.991822 248.024365,113.065044 C248.868579,113.781489 249.757683,114.360711 250.526599,114.837378 C251.246281,115.285156 252.055742,115.753156 252.933261,116.250044 C253.793404,116.738267 254.683956,117.222156 255.604917,117.707489 C256.592488,118.230378 257.572819,118.711378 258.509709,119.136044 C259.492936,119.582378 260.424034,119.965156 261.27404,120.272822 C262.953781,120.879489 264.420657,121.161156 265.887534,121.161156 C268.450586,121.161156 271.322073,120.573267 274.674313,119.358489 C277.288047,118.410933 280.129125,117.177378 283.117904,115.692489 C285.992287,114.265378 288.998443,112.6346 292.052384,110.846378 C292.162436,110.784267 292.27104,110.719267 292.379644,110.655711 C293.134079,111.5036 293.962365,112.295156 294.855813,113.026044 C295.553774,113.618267 296.376268,114.2076 297.365287,114.820044 C298.082073,115.266378 298.890086,115.743044 299.771949,116.241378 C300.632092,116.7296 301.522644,117.217822 302.447949,117.707489 C303.45869,118.239044 304.42454,118.715711 305.346949,119.1346 C306.335969,119.582378 307.268514,119.9666 308.114177,120.271378 C309.796813,120.878044 311.262242,121.161156 312.72767,121.161156 C315.289274,121.161156 318.159313,120.573267 321.514449,119.358489 C324.126735,118.410933 326.967813,117.177378 329.959488,115.692489 C331.610268,114.872044 333.300144,113.9866 335.014638,113.046267 C335.576482,113.613933 336.171631,114.170044 336.788501,114.705933 C337.802138,115.592822 338.834599,116.414711 339.854027,117.148489 C340.995092,117.973267 342.139053,118.688267 343.256949,119.2776 C345.165482,120.282933 346.976995,120.836156 348.679904,120.960378 C351.260332,121.181378 353.903027,120.840489 356.534138,119.9406 C358.355787,119.319489 360.22667,118.513489 362.090313,117.547156 C362.618852,117.274156 363.148839,116.993933 363.678826,116.710822 C364.384027,117.2496 365.128326,117.750822 365.901586,118.204378 C366.841371,118.759044 367.899897,119.310822 369.046755,119.843822 L369.555021,120.061933 C372.315008,121.1496 374.933086,120.787044 377.335404,120.236711 C378.980391,119.8626 380.903404,119.247267 383.214495,118.358933 C385.296794,117.557267 387.615125,116.546156 390.312845,115.2606 C393.010566,113.972156 395.887845,112.4136 398.860696,110.631156 C401.827755,108.854489 404.93817,106.809156 408.099268,104.557267 C411.355936,102.238933 414.634326,99.6230444 417.844657,96.7803778 L418.030008,96.6113778 C418.7048,95.9801556 419.436066,95.2333778 420.267248,94.3233778 C421.340255,93.1490444 422.313345,91.8548222 423.151768,90.4898222 C424.111826,88.9283778 424.853229,87.2961556 425.354255,85.6307111 C426.197021,82.8270444 426.139099,79.9554889 425.189177,77.3266 L424.615748,75.7406 L420.833436,71.2772667 C422.721696,69.4399333 423.836696,68.2540444 424.518729,67.3671556 C426.066696,65.3550444 428.639884,62.3318222 431.621423,58.8304889 C434.804242,55.0908222 438.411339,50.8513778 441.873631,46.5498222 C445.447423,42.1081556 446.640618,35.6702667 445.231664,28.4220444" id="Fill-1" fill="#000000" mask="url(#mask-2)"></path>
                </g>
                <path id="Fill-4" fill="#FFFFFF"></path>
                <path d="M385.625501,78.1640889 C384.359904,79.9985333 382.800352,81.8142 380.948294,83.6110889 C379.093339,85.4108667 377.018281,87.1528667 374.72167,88.8399778 C372.426508,90.5285333 370.113969,92.0784222 367.786949,93.4896444 C365.45993,94.9023111 363.195177,96.1503111 360.991242,97.2322 C358.788755,98.3155333 356.854157,99.1316444 355.188897,99.6805333 C355.03106,99.0204222 355.190345,98.3242 355.659514,97.5904222 C356.128683,96.8566444 356.65143,96.1589778 357.233547,95.4988667 C359.100086,93.3336444 361.293884,91.1048667 363.813495,88.8125333 C366.330209,86.5202 368.965664,84.3463111 371.716962,82.2908667 C374.468261,80.2368667 377.242729,78.3836444 380.034573,76.7326444 C382.829313,75.0816444 385.460423,73.7989778 387.932248,72.8803111 C387.660014,74.5688667 386.888203,76.3296444 385.625501,78.1640889 M175.414696,93.0072 C173.119534,94.6957556 170.806995,96.2456444 168.479975,97.6583111 C166.151508,99.0709778 163.888203,100.317533 161.684268,101.399422 C159.481781,102.482756 157.547183,103.298867 155.880475,103.8492 C155.724086,103.189089 155.883371,102.491422 156.35254,101.757644 C156.821709,101.023867 157.344456,100.3262 157.926573,99.6660889 C159.793112,97.5023111 161.985462,95.2735333 164.505073,92.9797556 C167.023235,90.6874222 169.65869,88.5149778 172.409988,86.4595333 C175.161287,84.4040889 177.935755,82.5523111 180.727599,80.9013111 C183.522339,79.2488667 186.153449,77.9662 188.623826,77.0489778 C188.351592,78.7360889 187.581229,80.4968667 186.318527,82.3313111 C185.051482,84.1657556 183.49193,85.9828667 181.641319,87.7797556 C179.786365,89.5780889 177.709858,91.3200889 175.414696,93.0072 M133.069313,82.5248667 C132.755086,83.1300889 132.514709,83.7165333 132.346735,84.2856444 C132.178761,84.8547556 132.103462,85.4050889 132.117943,85.9366444 C132.135319,86.4682 132.317774,86.9737556 132.675443,87.4489778 C131.383781,88.7345333 130.089222,89.9536444 128.788871,91.1092 C127.487073,92.2647556 126.081014,93.4116444 124.569248,94.5484222 C123.694625,95.2085333 122.618722,95.9610889 121.34154,96.8046444 C120.064358,97.6496444 118.782832,98.4469778 117.495514,99.1995333 C116.208196,99.9506444 114.997625,100.583311 113.865248,101.097533 C112.729975,101.611756 111.868384,101.867422 111.281923,101.867422 C110.876469,101.867422 110.589755,101.740311 110.421781,101.4832 C110.25091,101.226089 110.266839,100.896756 110.463774,100.492311 C111.182008,99.0247556 112.201436,97.4647556 113.523508,95.8137556 C114.845579,94.1627556 116.355897,92.5030889 118.054462,90.8333111 C119.754475,89.1649778 121.594949,87.5226444 123.580229,85.9092 C125.565508,84.2943111 127.588436,82.7718667 129.649014,81.3404222 C130.141352,81.0110889 130.652514,80.7352 131.182501,80.5156444 C131.712488,80.2960889 132.199034,80.1848667 132.64069,80.1848667 C133.156196,80.1848667 133.589164,80.3509778 133.943936,80.6803111 C133.674599,81.3043111 133.38354,81.9196444 133.069313,82.5248667 M85.1836831,82.5248667 C84.8694558,83.1300889 84.6290792,83.7165333 84.4611052,84.2856444 C84.2931312,84.8547556 84.2178325,85.4050889 84.232313,85.9366444 C84.2482416,86.4682 84.4335922,86.9737556 84.789813,87.4489778 C83.4995987,88.7345333 82.2035922,89.9536444 80.9046896,91.1092 C79.6014429,92.2647556 78.1953844,93.4116444 76.6836182,94.5484222 C75.8089948,95.2085333 74.7330922,95.9610889 73.4573584,96.8046444 C72.1787286,97.6496444 70.8972026,98.4469778 69.6113325,99.1995333 C68.3225662,99.9506444 67.1134429,100.583311 65.9796182,101.097533 C64.8443455,101.611756 63.9842026,101.867422 63.3962935,101.867422 C62.990839,101.867422 62.7041247,101.740311 62.5361506,101.4832 C62.3667286,101.226089 62.3812091,100.896756 62.5781442,100.492311 C63.2963779,99.0247556 64.3158065,97.4647556 65.6378779,95.8137556 C66.9599494,94.1627556 68.4717156,92.5030889 70.1702805,90.8333111 C71.8688455,89.1649778 73.7107675,87.5226444 75.6945987,85.9092 C77.6798779,84.2943111 79.7028065,82.7718667 81.7633844,81.3404222 C82.2557221,81.0110889 82.7668844,80.7352 83.2968714,80.5156444 C83.8283065,80.2960889 84.3148519,80.1848667 84.7550597,80.1848667 C85.2705662,80.1848667 85.7035338,80.3509778 86.0583065,80.6803111 C85.7889688,81.3043111 85.4979104,81.9196444 85.1836831,82.5248667 M284.054794,73.3757556 C285.200203,72.2750889 286.438287,71.2293111 287.767599,70.2398667 C289.098358,69.2489778 290.475456,68.3866444 291.901787,67.6528667 C293.32667,66.9190889 294.682047,66.4799778 295.967917,66.3326444 C296.11417,66.3326444 296.235806,66.3875333 296.328482,66.4973111 C296.421157,66.6070889 296.542794,66.6995333 296.690495,66.7717556 C295.672514,67.8002 294.518417,68.8633111 293.226755,69.9639778 C291.935092,71.0646444 290.595644,72.0743111 289.209858,72.9900889 C287.821177,73.9087556 286.442631,74.6786444 285.071326,75.3026444 C283.700021,75.9266444 282.417047,76.2935333 281.223852,76.4033111 C281.965255,75.4860889 282.909384,74.4764222 284.054794,73.3757556 M330.89493,73.3757556 C332.038891,72.2750889 333.275527,71.2293111 334.607735,70.2398667 C335.937047,69.2489778 337.314144,68.3866444 338.740475,67.6528667 C340.165358,66.9190889 341.520735,66.4799778 342.806605,66.3326444 C342.952858,66.3326444 343.073047,66.3875333 343.16717,66.4973111 C343.259845,66.6070889 343.380034,66.6995333 343.530631,66.7717556 C342.511203,67.8002 341.357105,68.8633111 340.065443,69.9639778 C338.772332,71.0646444 337.432884,72.0743111 336.047099,72.9900889 C334.661313,73.9087556 333.281319,74.6786444 331.911462,75.3026444 C330.538709,75.9266444 329.255735,76.2935333 328.06254,76.4033111 C328.805391,75.4860889 329.749521,74.4764222 330.89493,73.3757556 M426.380923,15.3842 C421.296813,32.4979778 411.195203,47.0565333 399.939495,60.9737556 C399.183612,61.9083111 397.083936,64.4808667 394.942268,67.0895333 C393.99669,64.9690889 392.602216,63.5058667 390.758845,62.6998667 C388.908235,61.8938667 386.754982,61.6540889 384.294742,61.9848667 C381.834501,62.3142 379.132436,63.1592 376.188547,64.5155333 C373.244657,65.8733111 370.231261,67.6340889 367.149806,69.7993111 C365.36291,71.0473111 363.405144,72.4773111 361.273612,74.0922 C359.140631,75.7056444 357.00041,77.4303111 354.854397,79.2647556 C354.095618,79.9118667 353.35856,80.5806444 352.618605,81.2465333 C351.838105,81.7376444 351.080774,82.2316444 350.372677,82.7314222 C349.332975,83.4652 348.51193,84.0343111 347.910988,84.4373111 C345.667956,85.9424222 343.080287,87.6208667 340.153774,89.4726444 C337.224365,91.3258667 334.244274,93.0779778 331.210605,94.7289778 C328.178384,96.3799778 325.231599,97.7652 322.365904,98.8832 C319.503105,100.002644 317.022592,100.561644 314.925813,100.561644 C312.829034,100.561644 311.651768,100.148533 311.394014,99.3237556 C311.136261,98.4989778 311.354917,97.3694222 312.054326,95.9394222 C312.717534,94.5830889 313.395222,93.4997556 314.084495,92.6923111 C314.772319,91.8863111 315.654183,90.9864222 316.72719,89.9955333 C318.631378,89.3354222 320.667339,88.6290889 322.837969,87.8765333 C325.007151,87.1254222 327.195157,86.2818667 329.40054,85.3458667 C331.604475,84.4098667 333.780897,83.3828667 335.92691,82.2634222 C338.072923,81.1454222 340.098748,79.8786444 342.004384,78.4659778 C343.908573,77.0547556 345.631755,75.5048667 347.17393,73.8163111 C348.716105,72.1292 349.990391,70.2586444 350.995339,68.2032 C352.680871,64.7553111 352.969034,62.1495333 351.86417,60.3887556 C350.757858,58.6279778 348.309203,57.7468667 344.522547,57.7468667 C342.130365,57.7468667 339.507943,58.2423111 336.650936,59.2332 C333.79393,60.2240889 330.864521,61.5717556 327.858365,63.2776444 C324.855105,64.9835333 321.872118,66.9465333 318.9123,69.1666444 C315.951034,71.3867556 313.183806,73.7339778 310.613514,76.2097556 C308.900469,77.8593111 307.317748,79.5262 305.842183,81.2089778 C305.038514,81.7116444 304.26091,82.2186444 303.533988,82.7314222 C302.495735,83.4652 301.67469,84.0343111 301.0723,84.4373111 C298.827819,85.9424222 296.243047,87.6208667 293.315086,89.4726444 C290.385677,91.3258667 287.404138,93.0779778 284.373365,94.7289778 C281.339696,96.3799778 278.391462,97.7652 275.528664,98.8832 C272.662969,100.002644 270.183904,100.561644 268.087125,100.561644 C265.990345,100.561644 264.813079,100.148533 264.553878,99.3237556 C264.296125,98.4989778 264.517677,97.3694222 265.217086,95.9394222 C265.880294,94.5830889 266.556534,93.4997556 267.245806,92.6923111 C267.933631,91.8863111 268.815495,90.9864222 269.887053,89.9955333 C271.791242,89.3354222 273.828651,88.6290889 276.000729,87.8765333 C278.168462,87.1254222 280.356469,86.2818667 282.560404,85.3458667 C284.764339,84.4098667 286.940761,83.3828667 289.088222,82.2634222 C291.235683,81.1454222 293.261508,79.8786444 295.165696,78.4659778 C297.068436,77.0547556 298.793066,75.5048667 300.335242,73.8163111 C301.877417,72.1292 303.150255,70.2586444 304.155203,68.2032 C305.842183,64.7553111 306.131794,62.1495333 305.025482,60.3887556 C303.917722,58.6279778 301.470514,57.7468667 297.68241,57.7468667 C295.291677,57.7468667 292.669255,58.2423111 289.812248,59.2332 C286.955242,60.2240889 284.024384,61.5717556 281.021125,63.2776444 C278.016417,64.9835333 275.03343,66.9465333 272.072164,69.1666444 C269.112345,71.3867556 266.345118,73.7339778 263.773378,76.2097556 C262.041508,77.8780889 260.44141,79.5637556 258.952813,81.2653111 C257.335339,82.1507556 255.772891,82.9408667 254.279949,83.6110889 C251.663319,84.7868667 249.230592,85.7026444 246.975975,86.3642 C244.722806,87.0243111 242.649196,87.4836444 240.75804,87.7393111 C238.868332,87.9964222 237.150943,88.1249778 235.604423,88.1249778 C233.803047,88.1249778 232.275352,88.0152 231.022787,87.7942 C231.687443,86.5100889 232.530209,85.1422 233.552534,83.6919778 C234.57341,82.2417556 235.705787,80.7352 236.946768,79.1752 C238.1863,77.6152 239.488099,76.0089778 240.847819,74.3565333 C242.20754,72.7040889 243.584638,71.0155333 244.98056,69.2894222 C248.820794,64.5155333 252.818865,60.0088667 256.97043,55.7679778 C261.121995,51.5270889 265.306865,47.4248667 269.526488,43.4584222 C273.744664,39.4934222 277.942566,35.5732 282.1173,31.7006444 C286.290586,27.8266444 290.349475,23.8515333 294.292521,19.7753111 L288.422118,20.1609778 C283.29167,23.2058667 278.081579,26.8285333 272.790397,31.0289778 C267.499216,35.2308667 262.348495,39.6508667 257.341131,44.2918667 C252.330871,48.9343111 247.565332,53.6013111 243.044514,58.2972 C238.522248,62.9945333 234.438742,67.3408667 230.792547,71.3390889 C230.266904,71.9645333 229.341599,72.6333111 228.016631,73.3483111 C226.693112,74.0647556 225.171209,74.8620889 223.453819,75.7432 C221.734982,76.6228667 219.936501,77.5949778 218.055482,78.6595333 C216.173014,79.7240889 214.433904,80.9157556 212.83091,82.2359778 C212.211144,82.7502 211.747768,83.2095333 211.440781,83.6110889 C211.133794,84.0155333 210.854319,84.4748667 210.602358,84.9876444 C210.512579,85.1725333 210.427144,85.3646444 210.347501,85.5654222 C210.267858,85.7676444 210.173735,85.9785333 210.066579,86.1980889 C210.191112,86.3049778 210.367774,86.6790889 210.590774,87.3059778 C210.574845,87.3175333 210.558917,87.3276444 210.542988,87.3392 C208.537436,88.6969778 206.429073,90.0908667 204.22369,91.5223111 C202.013962,92.9523111 199.792651,94.3563111 197.556858,95.7314222 C195.322514,97.1079778 193.253248,98.2909778 191.353404,99.2818667 C189.45356,100.271311 187.796988,101.006533 186.388034,101.4832 C184.976183,101.959867 183.985716,102.032089 183.410839,101.702756 C186.054982,98.4007556 188.900404,94.9702 191.945657,91.4110889 C193.338683,89.7832 194.750534,88.1495333 196.171073,86.5129778 L196.224651,86.5202 C198.710956,83.9100889 215.123177,69.3313111 217.219956,66.6056444 C220.646047,62.1509778 228.034008,53.9147556 234.703735,45.6265333 C239.540229,39.6147556 234.314209,24.0624222 226.549755,19.7175333 C221.465644,36.8313111 211.364034,51.3898667 200.108326,65.3070889 C199.395884,66.1867556 197.490248,68.5238667 195.4818,70.9707556 C194.540566,69.0149778 193.205462,67.6340889 191.451871,66.8670889 C189.601261,66.0610889 187.448008,65.8227556 184.987768,66.1520889 C182.527527,66.4828667 179.825462,67.3264222 176.881573,68.6842 C173.937683,70.0405333 170.924287,71.8027556 167.842832,73.9665333 C166.055936,75.2145333 164.096722,76.6445333 161.96519,78.2594222 C159.833657,79.8743111 157.693436,81.5975333 155.545975,83.4319778 C154.894352,83.9880889 154.263001,84.5658667 153.625858,85.1349778 C152.877216,85.5322 152.169118,85.8586444 151.526183,86.0738667 C150.755819,86.3309778 150.062203,86.4869778 149.449677,86.5418667 C148.831358,86.5967556 148.25069,86.6242 147.698982,86.6242 C147.183475,86.6242 146.80119,86.6155333 146.552125,86.5967556 C146.304508,86.5779778 146.117709,86.5418667 146.000417,86.4869778 C145.880229,86.4320889 145.786105,86.3772 145.722391,86.3208667 C145.655781,86.2659778 145.577586,86.1836444 145.48491,86.0738667 C145.720943,85.8167556 145.98304,85.4874222 146.271203,85.0829778 C146.562261,84.6799778 146.837391,84.2668667 147.09804,83.8450889 C147.360138,83.4233111 147.612099,83.0015333 147.855371,82.5797556 C148.097196,82.1579778 148.301371,81.7809778 148.463553,81.4502 C149.233917,79.8743111 149.661092,78.1496444 149.750871,76.2776444 C149.837755,74.4070889 149.598826,72.6564222 149.036982,71.0227556 C148.475138,69.3905333 147.587482,68.0226444 146.381255,66.9219778 C145.170683,65.8227556 143.629956,65.2724222 141.753281,65.2724222 C140.024306,65.2724222 138.010066,65.6118667 135.71056,66.2893111 C133.411053,66.9696444 131.076794,67.8305333 128.709229,68.8763111 C126.340216,69.9220889 124.05519,71.0964222 121.855599,72.3978667 C119.65456,73.7007556 117.799605,74.9574222 116.289287,76.1678667 C114.485014,77.5256444 112.557657,79.0755333 110.51156,80.8175333 C108.894086,82.1940889 107.33743,83.6298667 105.814079,85.0974222 C105.039371,85.5134222 104.306657,85.8514222 103.640553,86.0738667 C102.871638,86.3309778 102.178021,86.4869778 101.562599,86.5418667 C100.948625,86.5967556 100.36506,86.6242 99.8133519,86.6242 C99.2963974,86.6242 98.9155597,86.6155333 98.6679429,86.5967556 C98.4188779,86.5779778 98.2349753,86.5418667 98.114787,86.4869778 C97.9945987,86.4320889 97.9019234,86.3772 97.836761,86.3208667 C97.7715987,86.2659778 97.6919558,86.1836444 97.5992805,86.0738667 C97.835313,85.8167556 98.0974104,85.4874222 98.3870208,85.0829778 C98.6766312,84.6799778 98.951761,84.2668667 99.2138584,83.8450889 C99.4745078,83.4233111 99.7264688,83.0015333 99.9697416,82.5797556 C100.211566,82.1579778 100.415742,81.7809778 100.577923,81.4502 C101.348287,79.8743111 101.77691,78.1496444 101.865242,76.2776444 C101.952125,74.4070889 101.713196,72.6564222 101.1528,71.0227556 C100.58806,69.3905333 99.7033,68.0226444 98.4941766,66.9219778 C97.2850532,65.8227556 95.744326,65.2724222 93.8676506,65.2724222 C92.1386766,65.2724222 90.1244364,65.6118667 87.8249299,66.2893111 C85.5254234,66.9696444 83.1911636,67.8305333 80.8235987,68.8763111 C78.4545857,69.9220889 76.1695597,71.0964222 73.9699688,72.3978667 C71.7703779,73.7007556 69.9139753,74.9574222 68.4036571,76.1678667 C66.5993844,77.5256444 64.6734753,79.0755333 62.6259299,80.8175333 C60.5783844,82.5609778 58.6046896,84.3766444 56.7077416,86.2659778 C54.8093455,88.1553111 53.0629948,90.0908667 51.4686896,92.0712 C49.8758325,94.0529778 48.6203714,95.9784222 47.7052026,97.8504222 C47.5444688,98.1797556 47.3388455,98.6390889 47.0883325,99.2269778 C46.8378195,99.8134222 46.5844104,100.446089 46.3252091,101.124978 C46.0674558,101.803867 45.8270792,102.482756 45.6055273,103.161644 C45.3839753,103.840533 45.1942805,104.454422 45.0349948,105.004756 C45.3361896,105.445311 45.7474364,106.069311 46.2716312,106.875311 C46.795826,107.682756 47.3953195,108.563867 48.0701117,109.5172 C48.7434558,110.471978 49.4805143,111.444089 50.2856312,112.433533 C51.0878519,113.424422 51.926274,114.324311 52.8008974,115.131756 C53.6740727,115.937756 54.5559364,116.596422 55.4450403,117.112089 C56.3341442,117.624867 57.2015273,117.881978 58.0486377,117.881978 C58.5626961,117.881978 59.0304169,117.790978 59.4518,117.607533 C62.3044623,116.359533 65.0644494,115.058089 67.7332091,113.700311 C70.4019688,112.342533 72.9896377,110.847533 75.4991117,109.215311 C78.0071377,107.583089 80.4398649,105.765978 82.7972935,103.766867 C85.153274,101.767756 87.4846377,99.5014222 89.7884883,96.9707556 C90.6804883,97.7782 91.9924234,98.1797556 93.7213974,98.1797556 C94.2846896,98.1797556 94.881287,98.1306444 95.4996052,98.0468667 C95.3533519,98.3574222 95.1824818,98.7373111 94.9739623,99.2269778 C94.7234494,99.8134222 94.4700403,100.446089 94.210839,101.124978 C93.9530857,101.803867 93.7127091,102.482756 93.4911571,103.161644 C93.2696052,103.840533 93.0799104,104.454422 92.9206247,105.004756 C93.2218195,105.445311 93.6330662,106.069311 94.157261,106.875311 C94.6814558,107.682756 95.2809494,108.563867 95.9557416,109.5172 C96.6290857,110.471978 97.3661442,111.444089 98.171261,112.433533 C98.9734818,113.424422 99.8119039,114.324311 100.686527,115.131756 C101.559703,115.937756 102.441566,116.596422 103.33067,117.112089 C104.219774,117.624867 105.087157,117.881978 105.934268,117.881978 C106.448326,117.881978 106.916047,117.790978 107.335982,117.607533 C110.190092,116.359533 112.950079,115.058089 115.618839,113.700311 C118.287599,112.342533 120.876716,110.847533 123.38619,109.215311 C125.891319,107.583089 128.324047,105.765978 130.682923,103.766867 C133.040352,101.767756 135.370268,99.5014222 137.674118,96.9707556 C138.566118,97.7782 139.876605,98.1797556 141.607027,98.1797556 C141.735904,98.1797556 141.872021,98.1682 142.002345,98.1638667 C141.415884,99.1374222 140.903274,100.1052 140.468858,101.070089 C139.582651,103.033089 139.204709,104.894978 139.336482,106.655756 C139.378475,107.096311 139.601475,107.637978 140.005482,108.279311 C140.40804,108.920644 140.923547,109.599533 141.547657,110.314533 C142.170319,111.030978 142.882761,111.737311 143.683534,112.433533 C144.482858,113.1312 145.276391,113.763867 146.065579,114.332978 C146.853319,114.902089 147.613547,115.378756 148.344813,115.762978 C149.074631,116.148644 149.688605,116.359533 150.186735,116.397089 C151.456677,116.506867 152.788884,116.321978 154.179014,115.846756 C155.57204,115.370089 156.994027,114.754756 158.446423,114.003644 C159.898819,113.251089 161.352664,112.460978 162.803612,111.6362 C164.256008,110.809978 165.676547,110.105089 167.066677,109.5172 C167.31719,110.434422 167.644449,111.214422 168.047008,111.855756 C168.449566,112.498533 168.936112,113.067644 169.5023,113.563089 C170.068488,114.058533 170.695495,114.507756 171.381871,114.909311 C172.0668,115.3152 172.842956,115.7182 173.711787,116.1212 C173.991261,116.230978 174.728319,116.148644 175.930203,115.872756 C177.132086,115.598311 178.659781,115.102867 180.519079,114.387867 C182.375482,113.672867 184.517151,112.736867 186.939742,111.581311 C189.362332,110.424311 191.951449,109.021756 194.707092,107.370756 C197.464183,105.719756 200.337118,103.831867 203.327345,101.702756 C204.925995,100.564533 206.524644,99.3468667 208.121845,98.0627556 C205.503768,101.447089 202.852384,104.790978 200.127151,108.045311 C196.014683,112.9622 191.912352,117.704311 187.821605,122.271644 C183.730858,126.838978 179.729891,131.186756 175.817255,135.313533 C171.904618,139.441756 168.200501,143.312867 164.704904,146.925422 C161.209306,150.539422 157.983047,153.887644 155.021781,156.970089 C152.061962,160.051089 149.511943,162.8042 147.371722,165.223644 C147.465845,165.407089 147.755456,165.701756 148.237657,166.104756 C148.721306,166.507756 149.301975,166.958422 149.978216,167.452422 C150.655904,167.947867 151.384274,168.4722 152.163326,169.021089 C152.942378,169.571422 153.693917,170.066867 154.416495,170.507422 C155.139073,170.946533 155.773319,171.304756 156.317787,171.580644 C156.865151,171.855089 157.247436,171.993756 157.46754,171.993756 C161.85369,168.141422 165.990774,164.362756 169.880242,160.656311 C173.769709,156.951311 177.505683,153.263644 181.082371,149.594756 C184.65906,145.925867 188.140177,142.248311 191.524274,138.560644 C194.908371,134.874422 198.288125,131.085644 201.660638,127.1972 C205.033151,123.308756 208.459242,119.014422 211.940358,114.904978 C215.420027,110.796978 219.044501,107.509422 222.815229,101.731644 L223.643514,101.731644 C225.848897,101.731644 228.181709,101.900644 230.643397,101.644978 C233.103638,101.387867 235.72606,101.005089 238.509216,100.201978 C241.293819,99.3988667 244.242053,98.3112 247.356813,96.7945333 C248.39217,96.2904222 249.457936,95.7444222 250.538183,95.1262 C250.457092,95.4454222 250.378897,95.7805333 250.323871,96.0853111 C250.047294,97.5904222 250.013988,98.9843111 250.222508,100.249644 C250.431027,101.514978 250.872683,102.667644 251.547475,103.6932 C252.222268,104.721644 253.06069,105.641756 254.06419,106.447756 C254.397242,106.742422 254.876547,107.081867 255.496313,107.467533 C256.117527,107.851756 256.816936,108.264867 257.595988,108.705422 C258.372144,109.145978 259.178709,109.586533 260.011339,110.027089 C260.843969,110.467644 261.643294,110.861978 262.412209,111.210089 C263.178229,111.559644 263.867501,111.842756 264.477131,112.063756 C265.086761,112.283311 265.557378,112.393089 265.887534,112.393089 C267.321105,112.393089 269.178956,111.981422 271.45819,111.1552 C273.738871,110.330422 276.225177,109.248533 278.921449,107.908089 C281.617722,106.570533 284.40667,105.056756 287.292638,103.3682 C290.177157,101.681089 292.951625,99.9752 295.61604,98.2505333 C296.083761,97.9472 296.537001,97.6482 296.99169,97.3492 C296.891774,98.3805333 296.912047,99.3512 297.061196,100.258311 C297.269716,101.525089 297.709923,102.671978 298.386164,103.698978 C299.059508,104.725978 299.89793,105.6432 300.902878,106.450644 C301.237378,106.743867 301.713787,107.083311 302.335001,107.468978 C302.956216,107.8532 303.655625,108.266311 304.433229,108.706867 C305.210832,109.147422 306.015949,109.586533 306.850027,110.027089 C307.682657,110.467644 308.48343,110.861978 309.250897,111.210089 C310.016917,111.559644 310.70619,111.842756 311.315819,112.063756 C311.925449,112.283311 312.394618,112.393089 312.72767,112.393089 C314.161242,112.393089 316.017644,111.981422 318.298326,111.1552 C320.576112,110.330422 323.063865,109.248533 325.761586,107.908089 C328.45641,106.570533 331.246806,105.056756 334.131326,103.3682 C335.693774,102.455311 337.217125,101.5352 338.71441,100.610756 C338.636216,101.246311 338.598566,101.876089 338.643456,102.487089 C338.685449,102.929089 338.908449,103.470756 339.312456,104.110644 C339.715014,104.753422 340.230521,105.432311 340.854631,106.147311 C341.478742,106.863756 342.189735,107.570089 342.990508,108.266311 C343.789832,108.963978 344.583365,109.596644 345.372553,110.164311 C346.161742,110.733422 346.920521,111.210089 347.651787,111.595756 C348.383053,111.981422 348.997027,112.192311 349.495157,112.228422 C350.763651,112.3382 352.095858,112.154756 353.487436,111.678089 C354.879014,111.202867 356.301001,110.587533 357.753397,109.834978 C359.205794,109.082422 360.659638,108.293756 362.110586,107.468978 C363.562982,106.642756 364.983521,105.937867 366.373651,105.349978 C366.624164,106.2672 366.951423,107.0472 367.353982,107.688533 C367.757988,108.331311 368.243086,108.898978 368.809274,109.394422 C369.37691,109.889867 370.003917,110.339089 370.688845,110.742089 C371.373774,111.146533 372.151378,111.549533 373.020209,111.953978 C373.298235,112.063756 374.035294,111.981422 375.238625,111.705533 C376.43906,111.431089 377.968203,110.935644 379.826053,110.2192 C381.683904,109.5042 383.824125,108.5682 386.246716,107.414089 C388.669306,106.257089 391.258423,104.854533 394.014066,103.203533 C396.771157,101.552533 399.644092,99.6632 402.634319,97.5355333 C405.623099,95.4078667 408.611878,93.0230889 411.593417,90.3812 C412.06693,89.9406444 412.63891,89.3542 413.310806,88.6204222 C413.981255,87.8866444 414.589436,87.0792 415.12956,86.1980889 C415.671131,85.3184222 416.072242,84.4373111 416.337235,83.5562 C416.602229,82.6765333 416.600781,81.8690889 416.335787,81.1353111 L415.075982,79.6489778 C413.598969,80.6398667 411.856962,81.8142 409.849962,83.1719778 C407.84441,84.5297556 405.737495,85.9236444 403.530664,87.3536444 C401.320936,88.7850889 399.099625,90.1890889 396.865281,91.5642 C394.629488,92.9393111 392.560222,94.1223111 390.660378,95.1132 C388.760534,96.1040889 387.103962,96.8393111 385.695008,97.3145333 C384.283157,97.7926444 383.29269,97.8648667 382.717813,97.5355333 C385.361956,94.2335333 388.207378,90.8029778 391.252631,87.2438667 C392.705027,85.5466444 394.1748,83.8436444 395.657605,82.1377556 L396.055819,82.1868667 C398.542125,79.5767556 414.954345,64.9979778 417.051125,62.2723111 C420.477216,57.8176444 427.865177,49.5814222 434.534904,41.2932 C439.371397,35.2814222 434.145378,19.7290889 426.380923,15.3842" id="Fill-6" fill="#FFFFFF"></path>
                <path d="M55.5899903,72.7409222 C59.3795422,71.3470333 63.3254838,69.9517 67.430711,68.7037 C71.5330422,67.4571444 75.6397175,66.2640333 79.7463929,65.1994778 C83.8516201,64.1363667 87.6006266,63.1642556 90.9919643,62.3192556 C91.737711,60.1915889 91.8318344,58.5044778 91.2743344,57.2752556 C90.7182825,56.0460333 89.7220227,55.1432556 88.2898994,54.5741444 C86.857776,54.0050333 85.075224,53.7378111 82.9436916,53.7739222 C80.809263,53.8100333 78.5329253,54.0295889 76.1103344,54.4325889 C73.6877435,54.8370333 71.1985422,55.3945889 68.6412825,56.1110333 C66.0854708,56.8260333 63.6715682,57.5872556 61.4010227,58.3947 C62.6477955,56.5978111 64.0364773,54.7344778 65.5670682,52.8075889 C67.096211,50.8821444 68.573224,49.0650333 69.9966591,47.3605889 C71.4171981,45.6547 72.7001721,44.1409222 73.8441331,42.8192556 C74.9851981,41.4990333 75.7743864,40.5457 76.2073539,39.9578111 C82.5121721,37.5773667 88.7170747,35.1723667 97.7340942,34.3490333 C104.366172,33.4809222 110.789731,33.3567 116.059192,34.2768111 C113.929107,36.7930333 112.116146,38.9337 110.242367,41.1480333 C117.905458,43.3103667 128.111328,38.8788111 131.344828,32.1751444 C134.323471,25.9987 130.096607,17.9834778 123.128581,17.0705889 C120.174555,16.6834778 117.067036,16.8250333 114.102873,17.2395889 C101.643834,18.9801444 89.4454448,21.7332556 77.9218474,25.1825889 C74.566711,26.3395889 71.1797175,27.2828111 67.8158929,28.2361444 C66.0261006,28.7431444 64.5548799,29.2819222 63.4818734,30.1630333 C62.4074188,31.0427 61.4546006,32.1809222 60.6263149,33.5748111 C58.2486136,37.6105889 55.5422045,41.7749222 52.5056396,46.0663667 C49.4690747,50.3592556 46.2848084,54.6521444 42.954289,58.9435889 C39.6223214,63.2364778 36.236776,67.7705889 32.7933084,71.9537 C31.025237,74.1030333 29.3136396,76.1483667 27.6324513,78.3468111 C27.4673734,78.5519222 27.3109838,78.7498111 27.2139643,78.8928111 C27.1748669,78.9505889 27.1285292,79.0155889 27.0879838,79.0733667 C26.8403669,79.4041444 26.5913019,79.7248111 26.3436851,80.0657 L26.3914708,80.0657 C22.9537955,84.8959222 16.641737,92.8461444 10.9349643,100.815144 C6.44310714,107.086922 12.5321656,122.322922 20.5283084,126.227256 C24.6451201,108.856367 33.9141006,93.7575889 44.3719318,79.2351444 C44.6745747,78.8148111 45.21325,78.0709222 45.8836981,77.1479222 C48.6436851,75.6702556 51.8728409,74.1088111 55.5899903,72.7409222" id="Fill-8" fill="#FFFFFF"></path>
            </g>
        </g>
    </g>
</svg>